<?xml version="1.0" encoding="utf-8"?>
<!-- Generator: Adobe Illustrator 19.0.0, SVG Export Plug-In . SVG Version: 6.00 Build 0)  -->
<svg version="1.1" id="logo-highcharts" xmlns="http://www.w3.org/2000/svg" xmlns:xlink="http://www.w3.org/1999/xlink" x="0px"
	 y="0px" viewBox="166.1 -32.3 386.4 102.9" style="enable-background:new 166.1 -32.3 386.4 102.9;" xml:space="preserve">
<style type="text/css">
	.st0{fill:#8087E8;}
	.st1{fill:#30426B;}
	.st2{fill:#6699A1;}
	.st3{fill:#78758C;}
	.st4{fill:#A3EDBA;}
	.st5{fill:#F0F0F0;}
	.st6{fill:#ededed;}
	.st7{font-family:'MalayalamMN-Bold';}
	.st8{font-size:28.415px;}
</style>
<g id="symbol" transform="translate(30,30) scale(1)">
	<polygon id="svg_2" class="st0" points="194.5,-42 183.3,-15.8 168.6,18.7 202.9,4.2 221,-3.5 	"/>
	<polygon id="svg_3" class="st1" points="200.3,-10.3 202.9,4.2 221,-3.5 	"/>
	<polygon id="svg_4" class="st2" points="194.5,-42 200.3,-10.3 221,-3.5 	"/>
	<polygon id="svg_5" class="st3" points="200.3,-10.3 221,-3.5 183.3,-15.8 168.6,18.7 202.9,4.2 	"/>
	<polygon id="svg_6" class="st4" points="168.6,18.7 183.3,-15.8 153,-25.7 	"/>
	<polygon id="svg_7" class="st2" points="202.9,4.2 206.2,22.6 221,-3.5 	"/>
	<polygon id="svg_8" class="st0" points="194.5,-42 183.3,-15.8 200.3,-10.3 	"/>
</g>
<g id="text-highcharts" transform="translate(128.0240020751953,51.29105129241944) scale(1)">
	<path id="svg_2_1_" class="st5" d="M158.1-47.6h-16v9.6c0,1-0.8,1.8-1.7,1.8c-1,0-1.7-0.8-1.7-1.8v-21.3c0-1,0.8-1.8,1.7-1.8
		c1,0,1.7,0.8,1.7,1.8v8.3h16v-8.3c0-1,0.8-1.8,1.7-1.8c1,0,1.7,0.8,1.7,1.8V-38c0,1-0.8,1.8-1.7,1.8s-1.7-0.8-1.7-1.8V-47.6z"/>
	<path id="svg_3_1_" class="st5" d="M175.5-38c0,1-0.8,1.8-1.7,1.8S172-37,172-38v-21.3c0-1,0.8-1.8,1.7-1.8s1.7,0.8,1.7,1.8V-38z"
		/>
	<path id="svg_4_1_" class="st5" d="M201.1-46.9c0-1,0.8-1.7,1.7-1.7c1,0,1.7,0.8,1.7,1.8v5.7c0,0.4-0.2,1.1-0.6,1.4
		c-2.2,2.3-5.2,3.7-8.6,3.7c-6.8,0-12.2-5.7-12.2-12.7c0-7,5.4-12.7,12.2-12.7c3.4,0,6.4,1.4,8.6,3.7c0.7,0.7,0.7,1.8,0,2.5
		c-0.7,0.7-1.8,0.8-2.5,0.1c-1.6-1.7-3.7-2.7-6.1-2.7c-4.8,0-8.7,4.1-8.7,9.1c0,5,3.9,9.1,8.7,9.1c2.2,0,4.2-0.8,5.7-2.2
		C201.1-41.8,201.1-46.9,201.1-46.9z"/>
	<path id="svg_5_1_" class="st5" d="M233.1-47.6h-16v9.6c0,1-0.8,1.8-1.7,1.8c-1,0-1.7-0.8-1.7-1.8v-21.3c0-1,0.8-1.8,1.7-1.8
		c1,0,1.7,0.8,1.7,1.8v8.3h16v-8.3c0-1,0.8-1.8,1.7-1.8c1,0,1.7,0.8,1.7,1.8V-38c0,1-0.8,1.8-1.7,1.8c-1,0-1.7-0.8-1.7-1.8V-47.6z"
		/>
	<path id="svg_6_1_" class="st5" d="M256.4-36c-6.8,0-12.2-5.7-12.2-12.7c0-7,5.4-12.7,12.2-12.7c3.4,0,6.4,1.4,8.6,3.7
		c0.7,0.7,0.7,1.8,0,2.5c-0.7,0.7-1.8,0.8-2.5,0.1c-1.6-1.7-3.7-2.7-6.1-2.7c-4.8,0-8.7,4.1-8.7,9.1c0,5,3.9,9.1,8.7,9.1
		c2.4,0,4.6-0.9,6.2-2.6c0.7-0.7,1.7-0.7,2.4,0c0.7,0.7,0.7,1.8,0,2.5C262.8-37.3,259.8-36,256.4-36z"/>
	<path id="svg_7_1_" class="st5" d="M292.8-47.6h-16v9.6c0,1-0.8,1.8-1.7,1.8c-1,0-1.7-0.8-1.7-1.8v-21.3c0-1,0.8-1.8,1.7-1.8
		c1,0,1.7,0.8,1.7,1.8v8.3h16v-8.3c0-1,0.8-1.8,1.7-1.8c1,0,1.7,0.8,1.7,1.8V-38c0,1-0.8,1.8-1.7,1.8c-1,0-1.7-0.8-1.7-1.8V-47.6z"
		/>
	<path id="svg_8_1_" class="st5" d="M318.4-59.5l9.9,20.2c0.2,0.4,0.4,1,0.4,1.5c0,1-0.6,1.6-1.6,1.6c-0.7,0-1.4-0.2-1.9-1.2
		l-3.1-6.3h-12.7l-3,6.3c-0.5,1-1.2,1.2-1.9,1.2c-1,0-1.6-0.6-1.6-1.6c0-0.5,0.2-1.1,0.4-1.5l9.9-20.2c0.6-1.4,1.9-1.6,2.6-1.6
		C316.5-61.1,317.7-60.9,318.4-59.5z M311-47.2h9.4l-4.7-9.8L311-47.2z"/>
	<path id="svg_9" class="st5" d="M347.9-61c4.2,0,7.6,3.2,7.6,7.5c0,3.8-2.6,6.7-6.1,7.4l6.3,7c0.6,0.7,0.8,1.8,0.1,2.5
		c-0.7,0.7-2,0.5-2.7-0.3l-8.2-9h-6.1v8c0,1-0.8,1.7-1.7,1.7c-1,0-1.7-0.8-1.7-1.8v-21.2c0-1,0.8-1.8,1.7-1.8
		C337-61,347.9-61,347.9-61z M338.8-57.5v8.1h9.1c2.4,0,4.1-1.7,4.1-4.1c0-2.3-1.7-4.1-4.1-4.1L338.8-57.5L338.8-57.5z"/>
	<path id="svg_10" class="st5" d="M371.3-57.5h-8.7c-1,0-1.7-0.7-1.7-1.7c0-1,0.8-1.7,1.7-1.7h20.9c1,0,1.7,0.7,1.7,1.7
		c0,1-0.8,1.7-1.7,1.7h-8.7V-38c0,1-0.8,1.8-1.7,1.8c-1,0-1.7-0.8-1.7-1.8V-57.5L371.3-57.5z"/>
	<path id="svg_11" class="st5" d="M393.6-51.2c0-9.1,5.4-10.2,9.4-10.2c1,0,1.7,0.8,1.7,1.8c0,1-0.8,1.8-1.7,1.8
		c-3.3,0-5.9,0.7-5.9,6.5v5.1c0,9.1-5.4,10.1-9.4,10.1c-1,0-1.7-0.8-1.7-1.8s0.8-1.8,1.7-1.8c3.3,0,5.9-0.7,5.9-6.5L393.6-51.2
		L393.6-51.2z"/>
	<text transform="matrix(0.9603 0 0 1 138.6308 -1.1748)" class="st6 st7 st8">Visual Guide</text>
</g>
</svg>
